<svg xmlns="http://www.w3.org/2000/svg" xmlns:xlink="http://www.w3.org/1999/xlink" version="1.1" x="0px" y="0px" viewBox="0 0 100 125" enable-background="new 0 0 100 100" xml:space="preserve"><path d="M23.65,50.887c0.627-2.825-0.331-5.764-2.501-7.674c-0.272-0.242-0.455-0.568-0.518-0.928  c-0.15-0.867,0.433-1.693,1.301-1.842c4.319-0.744,7.218-4.848,6.474-9.164c-0.08-0.465-0.2-0.922-0.36-1.363  c-0.125-0.344-0.128-0.717-0.011-1.062c0.286-0.832,1.193-1.275,2.026-0.99c4.146,1.42,8.657-0.789,10.078-4.936  c0.937-2.734,0.311-5.764-1.633-7.904c1.711-0.592,3.463-1.055,5.243-1.391c20.114-3.785,39.491,9.451,43.278,29.564  c3.785,20.116-9.449,39.491-29.564,43.28c-20.115,3.785-39.49-9.451-43.277-29.566C18.462,57.861,22.701,55.164,23.65,50.887z   M16.659,59.021c4.951,18.748,24.164,29.932,42.914,24.98c18.748-4.953,29.934-24.166,24.98-42.915  c-4.951-18.748-24.164-29.934-42.912-24.982c-0.025,0.008-0.051,0.016-0.076,0.021c1,2.113,1.22,4.514,0.618,6.773  c-1.404,5.273-6.819,8.412-12.094,7.008c0.035,0.119,0.067,0.24,0.097,0.363c1.3,5.301-1.945,10.654-7.247,11.951  c1.643,1.666,2.643,3.857,2.82,6.189C26.175,53.854,22.101,58.605,16.659,59.021z"/><g><polygon points="57.932,26.511 54.518,31.009 59.176,36.287 63.988,27.751  "/></g><g><polyline points="75.477,44.507 70.508,46.214 73.303,51.178 75.477,44.507  "/></g><g><polyline points="59.369,57.875 57.521,61.836 61.008,63.125 61.008,59.379 59.369,57.875  "/></g><g><polyline points="45.215,42.945 42.345,47.876 44.713,49.439 47.684,47.273 47.684,43.248 45.215,42.945  "/></g><g><polyline points="33.578,60.453 31.79,64.477 34.792,66.029 35.198,63.441 33.578,60.453  "/></g><g><polyline points="44.18,29.833 41.373,33.363 43.614,34.333 44.925,33.08 45.509,30.603 44.18,29.833  "/></g><g><polyline points="75.107,63.062 72.543,66.084 74.904,68.723 76.467,67.928 76.262,65.922 75.107,63.062  "/></g><g><polygon points="45.383,18.119 45.663,22.121 48.502,20.537 48.502,18.05 45.383,18.05  "/></g><g><polyline points="47.261,57.15 45.905,59.072 47.368,60.791 49.047,59.184 48.452,57.451 47.261,57.15  "/></g><g><polyline points="39.678,72.969 37.953,75.693 40.076,78.119 42.853,76.543 42.095,73.672 39.678,72.969  "/></g><g><polyline points="75.584,29.636 72.705,32.017 74.492,35.291 76.279,32.91 75.584,29.636  "/></g><g><polyline points="55.016,73.496 62.492,70.807 65.084,76.984 61.494,80.369 55.414,77.184 55.016,73.496  "/></g><path d="M31.667,13.927c0.604,3.453-1.705,6.74-5.157,7.346c-3.453,0.605-6.742-1.705-7.347-5.158  c3.517-2.293,7.482-3.812,11.632-4.461C31.229,12.347,31.526,13.119,31.667,13.927z M29.653,13.843  c-2.875,0.607-5.633,1.666-8.175,3.139c1.082,2.172,3.721,3.059,5.896,1.977C29.261,18.019,30.217,15.875,29.653,13.843z"/><g><path d="M13.903,19.224c-1.443,1.523-2.547,3.338-3.236,5.32c1.295,1.182,3.302,1.09,4.482-0.205s1.09-3.303-0.206-4.484   C14.64,19.58,14.288,19.365,13.903,19.224z"/></g><g><path d="M21.631,31.462c0-1.383-1.118-2.5-2.498-2.5s-2.5,1.117-2.5,2.5c0,1.381,1.12,2.498,2.5,2.498S21.631,32.843,21.631,31.462   L21.631,31.462z"/></g><text x="0" y="115" fill="#000000" font-size="5px" font-weight="bold" font-family="'Helvetica Neue', Helvetica, Arial-Unicode, Arial, Sans-serif">Created by Aldric Rodríguez</text><text x="0" y="120" fill="#000000" font-size="5px" font-weight="bold" font-family="'Helvetica Neue', Helvetica, Arial-Unicode, Arial, Sans-serif">from the Noun Project</text></svg>